<svg width="32" height="32" viewBox="0 0 32 32" fill="none" xmlns="http://www.w3.org/2000/svg">
<path d="M26.2578 29.3333H26.0835C5.9371 28.1744 3.07661 11.1692 2.67676 5.97948C2.64454 5.57597 2.69223 5.17007 2.81709 4.78503C2.94195 4.39999 3.14154 4.04338 3.40441 3.73563C3.66727 3.42789 3.98826 3.17505 4.34897 2.99162C4.70969 2.80819 5.10304 2.69776 5.50649 2.66666H11.1557C11.5664 2.66626 11.9677 2.78923 12.3077 3.01964C12.6477 3.25006 12.9107 3.57729 13.0627 3.95897L14.6211 7.79486C14.7711 8.16773 14.8084 8.57648 14.7282 8.97034C14.648 9.3642 14.4539 9.72581 14.17 10.0102L11.9862 12.2154C12.3273 14.1546 13.2556 15.9422 14.6456 17.3364C16.0355 18.7305 17.82 19.6639 19.7576 20.0102L21.9825 17.8051C22.2711 17.5243 22.636 17.3346 23.0316 17.2598C23.4272 17.185 23.8361 17.2284 24.2073 17.3846L28.0725 18.9333C28.4483 19.0901 28.7689 19.3553 28.9935 19.695C29.2181 20.0348 29.3365 20.4337 29.3336 20.841V26.2564C29.3336 27.0725 29.0096 27.8551 28.4327 28.4321C27.8559 29.0091 27.0736 29.3333 26.2578 29.3333ZM5.75255 4.71794C5.48063 4.71794 5.21985 4.826 5.02758 5.01834C4.8353 5.21069 4.72728 5.47156 4.72728 5.74358V5.82563C5.19891 11.8974 8.22343 26.2564 26.1963 27.282C26.331 27.2904 26.466 27.272 26.5936 27.228C26.7212 27.184 26.8388 27.1153 26.9398 27.0257C27.0408 26.9362 27.1231 26.8275 27.182 26.7061C27.2409 26.5846 27.2752 26.4527 27.2831 26.3179V20.841L23.4178 19.2923L20.4753 22.2154L19.9832 22.1538C11.0634 21.0359 9.8536 12.1128 9.8536 12.0205L9.79209 11.5282L12.7038 8.58461L11.1659 4.71794H5.75255Z" fill="#A6A6A6"/>
</svg>
