<svg width="80" height="81" viewBox="0 0 80 81" fill="none" xmlns="http://www.w3.org/2000/svg">
<path d="M57.3071 23.8089H49.1V17.2134C49.1 16.8163 48.789 16.5 48.4073 16.5H30.6025C30.2192 16.5 29.9048 16.8163 29.9048 17.2134V23.8089H21.6977C21.3144 23.8089 21 24.1252 21 24.5171V59.7918C21 60.1837 21.3093 60.5 21.6977 60.5H57.3074C57.6907 60.5 58 60.1837 58 59.7918V24.5171C58 24.1252 57.6905 23.8089 57.3071 23.8089ZM22.3951 25.2305H29.9046V59.0838H22.3951V25.2305ZM31.2951 24.5171V17.9216H47.7099V59.0837H45.1882V51.9192C45.1882 51.5273 44.8789 51.211 44.4905 51.211H34.5098C34.1265 51.211 33.8172 51.5273 33.8172 51.9192V59.0837H31.2954L31.2951 24.5171ZM35.2071 59.0837V52.629H43.7977V59.0855L35.2071 59.0837ZM56.6094 59.0837H49.0999V25.2304H56.6146V59.0837H56.6094Z" fill="black"/>
<path d="M43.5 24.5C43.7767 24.5 44 24.2208 44 23.8748V21.1252C44 20.7792 43.7767 20.5 43.5 20.5C43.2233 20.5 43 20.7792 43 21.1252V23.8718C42.9964 24.2208 43.2233 24.5 43.5 24.5Z" fill="black"/>
<path d="M43.5 32.5C43.7767 32.5 44 32.2209 44 31.875V29.1295C44 28.7837 43.7767 28.5 43.5 28.5C43.2233 28.5 43 28.7791 43 29.1295V31.875C42.9964 32.2209 43.2233 32.5 43.5 32.5Z" fill="black"/>
<path d="M43.5 40.5C43.7767 40.5 44 40.2206 44 39.8743V37.1257C44 36.7794 43.7767 36.5 43.5 36.5C43.2233 36.5 43 36.7794 43 37.1257V39.8743C42.9964 40.2191 43.2233 40.5 43.5 40.5Z" fill="black"/>
<path d="M43.5 47.5C43.7767 47.5 44 47.1507 44 46.7179V44.2821C44 43.8493 43.7767 43.5 43.5 43.5C43.2233 43.5 43 43.8493 43 44.2821V46.7179C42.9964 47.1507 43.2233 47.5 43.5 47.5Z" fill="black"/>
<path d="M36.5018 24.5C36.7775 24.5 37 24.2208 37 23.8748V21.1252C37 20.7792 36.7775 20.5 36.5018 20.5C36.2261 20.5 36 20.7792 36 21.1252V23.8718C36 24.2208 36.2225 24.5 36.5018 24.5Z" fill="black"/>
<path d="M36.5018 32.5C36.7775 32.5 37 32.2209 37 31.875V29.1295C37 28.7837 36.7775 28.5 36.5018 28.5C36.2261 28.5 36 28.7791 36 29.1295V31.875C36 32.2209 36.2225 32.5 36.5018 32.5Z" fill="black"/>
<path d="M26.5018 32.5C26.7775 32.5 27 32.2209 27 31.875V29.1295C27 28.7837 26.7775 28.5 26.5018 28.5C26.2261 28.5 26 28.7791 26 29.1295V31.875C26 32.2209 26.2225 32.5 26.5018 32.5Z" fill="black"/>
<path d="M52.5018 32.5C52.7775 32.5 53 32.2209 53 31.875V29.1295C53 28.7837 52.7775 28.5 52.5018 28.5C52.2261 28.5 52 28.7791 52 29.1295V31.875C52 32.2209 52.2225 32.5 52.5018 32.5Z" fill="black"/>
<path d="M36.5018 40.5C36.7775 40.5 37 40.2206 37 39.8743V37.1257C37 36.7794 36.7775 36.5 36.5018 36.5C36.2261 36.5 36 36.7794 36 37.1257V39.8743C36 40.2191 36.2225 40.5 36.5018 40.5Z" fill="black"/>
<path d="M26.5018 40.5C26.7775 40.5 27 40.2206 27 39.8743V37.1257C27 36.7794 26.7775 36.5 26.5018 36.5C26.2261 36.5 26 36.7794 26 37.1257V39.8743C26 40.2191 26.2225 40.5 26.5018 40.5Z" fill="black"/>
<path d="M52.5018 40.5C52.7775 40.5 53 40.2206 53 39.8743V37.1257C53 36.7794 52.7775 36.5 52.5018 36.5C52.2261 36.5 52 36.7794 52 37.1257V39.8743C52 40.2191 52.2225 40.5 52.5018 40.5Z" fill="black"/>
<path d="M36.5018 47.5C36.7775 47.5 37 47.1507 37 46.7179V44.2821C37 43.8493 36.7775 43.5 36.5018 43.5C36.2261 43.5 36 43.8493 36 44.2821L36 46.7179C36 47.1507 36.2225 47.5 36.5018 47.5Z" fill="black"/>
<path d="M26.5018 47.5C26.7775 47.5 27 47.1507 27 46.7179V44.2821C27 43.8493 26.7775 43.5 26.5018 43.5C26.2261 43.5 26 43.8493 26 44.2821L26 46.7179C26 47.1507 26.2225 47.5 26.5018 47.5Z" fill="black"/>
<path d="M52.5018 47.5C52.7775 47.5 53 47.1507 53 46.7179V44.2821C53 43.8493 52.7775 43.5 52.5018 43.5C52.2261 43.5 52 43.8493 52 44.2821L52 46.7179C52 47.1507 52.2225 47.5 52.5018 47.5Z" fill="black"/>
</svg>
