<svg width="80" height="80" viewBox="0 0 80 80" fill="none" xmlns="http://www.w3.org/2000/svg">
<path d="M59.7389 39.9721C59.6342 39.8674 59.4761 39.7627 59.2667 39.7627C57.1643 39.7627 55.1667 39.4465 53.2761 38.7649C51.8575 38.2927 50.5435 37.6091 49.3342 36.8207L49.3322 25.5186V25.4652C49.3322 25.4118 49.3322 25.3605 49.2788 25.3071C49.2788 25.2538 49.2788 25.2538 49.2254 25.2024C49.2254 25.1491 49.1721 25.0977 49.1207 25.0977L49.0674 25.0444L43.2881 19.2115C43.2347 19.1581 43.1834 19.1068 43.0787 19.0534H43.0253C42.9719 19.0534 42.9206 19 42.8672 19H42.8138H23.3673C22.6324 19 22 19.6303 22 20.3673V52.7951C22 53.5301 22.6303 54.1625 23.3673 54.1625H41.1325C42.972 56.9485 45.3371 59.3136 48.1742 60.9414C48.2789 60.9948 48.3836 61.0461 48.5417 61.0461C48.6998 61.0461 48.8045 60.9927 48.9092 60.9414C55.7418 56.8949 60 49.0622 60 40.4438C59.9507 40.2877 59.8974 40.0783 59.7393 39.9716L59.7389 39.9721ZM43.4459 21.314L46.9668 24.835H43.4459V21.314ZM23.3692 52.7973V20.3695H42.1319V25.5719C42.1319 25.9394 42.4481 26.2556 42.8156 26.2556H48.018V36.7136C46.7575 37.6067 45.3367 38.3437 43.8134 38.8159C41.8691 39.4996 39.8715 39.8137 37.8228 39.8137C37.6647 39.8137 37.4553 39.9184 37.3506 40.0231C37.2459 40.1278 37.1412 40.3393 37.1412 40.5487C37.1412 45.0161 38.297 49.2207 40.3481 52.8462L23.3692 52.8483L23.3692 52.7973ZM48.4925 59.5762C42.4483 55.8438 38.6111 48.8554 38.4019 41.1273C40.3995 41.0739 42.3437 40.7064 44.1833 40.0761C45.7066 39.5506 47.1787 38.8156 48.4926 37.9204C49.8066 38.8135 51.2252 39.5506 52.8019 40.0761C54.6415 40.7064 56.5857 41.0739 58.5833 41.1273C58.3739 48.8549 54.5879 55.8457 48.4925 59.5762Z" fill="black"/>
<path d="M51.8041 44.9646L47.39 49.3786L45.181 47.225C44.9182 46.9622 44.4973 46.9622 44.2345 47.225C43.9717 47.4877 43.9717 47.9086 44.2345 48.1714L46.9158 50.8527C47.0205 50.9574 47.232 51.0621 47.388 51.0621C47.5461 51.0621 47.7555 51.0088 47.8602 50.8527L52.7485 45.9644C53.0113 45.7016 53.0113 45.2807 52.7485 45.0179C52.5391 44.7018 52.1182 44.7018 51.8041 44.9646Z" fill="black"/>
<path d="M27.7828 29.4591H43.4966C43.8641 29.4591 44.1803 29.143 44.1803 28.7755C44.1803 28.408 43.8641 28.0918 43.4966 28.0918L27.7828 28.0938C27.4153 28.0938 27.0992 28.41 27.0992 28.7775C27.1012 29.145 27.4153 29.4591 27.7828 29.4591Z" fill="black"/>
<path d="M27.7828 33.3506H43.4966C43.8641 33.3506 44.1803 33.0345 44.1803 32.6669C44.1803 32.2994 43.8641 31.9833 43.4966 31.9833H27.7828C27.4153 31.9833 27.0992 32.2994 27.0992 32.6669C27.1012 33.0878 27.4153 33.3506 27.7828 33.3506Z" fill="black"/>
<path d="M27.7828 37.2398H43.4966C43.8641 37.2398 44.1803 36.9236 44.1803 36.5561C44.1803 36.1886 43.8641 35.8724 43.4966 35.8724L27.7828 35.8745C27.4153 35.8745 27.0992 36.1907 27.0992 36.5582C27.1012 36.977 27.4153 37.2398 27.7828 37.2398Z" fill="black"/>
<path d="M27.7828 41.1288H34.3526C34.7201 41.1288 35.0363 40.8127 35.0363 40.4451C35.0363 40.0776 34.7201 39.7615 34.3526 39.7615H27.7828C27.4153 39.7615 27.0992 40.0776 27.0992 40.4451C27.1012 40.8126 27.4153 41.1288 27.7828 41.1288Z" fill="black"/>
<path d="M34.6154 43.6505H27.7828C27.4153 43.6505 27.0992 43.9667 27.0992 44.3342C27.0992 44.7017 27.4153 45.0179 27.7828 45.0179H34.6154C34.9829 45.0179 35.299 44.7017 35.299 44.3342C35.299 43.9667 35.0363 43.6505 34.6154 43.6505Z" fill="black"/>
</svg>
