<svg width="153" height="26" viewBox="0 0 153 26" fill="none" xmlns="http://www.w3.org/2000/svg">
<path d="M9.63811 17.9467L12.5139 20.8556V8.19111H6.30311V9.79778C6.30091 12.8756 7.48507 15.7711 9.63811 17.9489M16.0115 17.9467C18.1645 15.7689 19.3487 12.8756 19.3487 9.79556L19.3443 8.18889H13.1335V20.8533L16.0093 17.9444L16.0115 17.9467ZM20.5966 7.55778L20.5922 9.79556C20.5922 13.2089 19.2784 16.42 16.8903 18.8333L12.8259 22.9444L8.76151 18.8333C6.37341 16.4178 5.05962 13.2089 5.05962 9.79556L5.05303 7.55778L5.35621 7.56222H19.3443V7.55778H20.5966ZM25.5551 13C25.5551 5.86222 19.8342 0.0755577 12.7776 0.0755577C5.72091 0.0755577 0 5.86222 0 13C0 20.1378 5.72091 25.9244 12.7776 25.9244C19.8342 25.9244 25.5551 20.1378 25.5551 13Z" fill="#243E5E"/>
<path d="M46.0221 6.42712L40.4089 19.5249H38.3943L32.7788 6.42712H35.4657L39.4005 15.876L43.3177 6.42712H46.0221Z" fill="#243E5E"/>
<path d="M51.3039 8.84045V11.6471H56.5634V14.0605H51.3039V17.1093H56.9918V19.5249H48.8213V6.42712H56.9918V8.84045H51.3039Z" fill="#243E5E"/>
<path d="M65.5357 12.2271C66.1201 12.2271 66.5815 12.0649 66.9154 11.7405C67.2515 11.416 67.4185 11.0049 67.4185 10.5049C67.4185 10.0049 67.2537 9.59156 66.9242 9.26045C66.5946 8.92934 66.1443 8.7649 65.573 8.7649H63.018V12.2271H65.5357ZM70.424 19.5249H67.5327L64.0637 14.5849H63.018V19.5249H60.5376V6.42712H65.4808C66.8978 6.42712 68.0117 6.79823 68.8202 7.54045C69.6287 8.28268 70.0329 9.27156 70.0329 10.5049C70.0329 11.4649 69.7363 12.2982 69.1475 13.0027C68.5565 13.7071 67.7942 14.1782 66.8627 14.4138L70.4262 19.5227L70.424 19.5249Z" fill="#243E5E"/>
<path d="M78.8934 11.9845H84.0607V17.7645C83.439 18.3889 82.7184 18.8756 81.8967 19.2245C81.075 19.5734 80.2116 19.7489 79.3043 19.7489C77.7993 19.7489 76.4394 19.2889 75.2201 18.3667C74.728 17.9956 74.2908 17.5511 73.9261 17.0556C73.0363 15.8422 72.5903 14.4889 72.5903 12.9956C72.5903 11.7489 72.8913 10.6067 73.4955 9.57113C74.0996 8.53558 74.9147 7.71558 75.9385 7.11113C76.9645 6.50669 78.0872 6.20446 79.3065 6.20446C80.227 6.20446 81.097 6.38669 81.9187 6.74669C82.7403 7.10891 83.4609 7.60669 84.0827 8.24446L82.2724 10.0778C81.8857 9.66669 81.4419 9.34224 80.9388 9.10446C80.4357 8.86669 79.8909 8.74891 79.3065 8.74891C78.5595 8.74891 77.874 8.94002 77.2457 9.32002C76.6174 9.70002 76.1209 10.2156 75.754 10.8645C75.3871 11.5134 75.2047 12.2245 75.2047 12.9978C75.2047 13.7711 75.3849 14.4778 75.7452 15.12C76.1055 15.7622 76.5998 16.2734 77.2281 16.6534C77.8565 17.0334 78.5485 17.2245 79.3087 17.2245C80.1303 17.2245 80.8949 16.98 81.6023 16.4956V14.4378H78.8978V11.9867L78.8934 11.9845Z" fill="#243E5E"/>
<path d="M90.1596 8.84045V11.6471H95.4213V14.0605H90.1596V17.1093H95.8497V19.5249H87.6792V6.42712H95.8497V8.84045H90.1596Z" fill="#243E5E"/>
<path d="M104.337 7.562V19.5798H103.139V7.562H98.752V6.39978H108.724V7.562H104.337Z" fill="#243E5E"/>
<path d="M113.845 6.39978H112.647V19.5798H113.845V6.39978Z" fill="#243E5E"/>
<path d="M123.355 7.562V19.5798H122.156V7.562H117.769V6.39978H127.741V7.562H123.355Z" fill="#243E5E"/>
<path d="M139.956 19.5798H131.665V6.39978H132.864V18.4153H139.956V19.5798Z" fill="#243E5E"/>
<path d="M144.093 6.39978V19.5798H152.112V18.4176H145.29V13.3776H151.745V12.2131H145.29V7.562H152.112V6.39978H144.093Z" fill="#243E5E"/>
</svg>
