<svg width="12" height="12" viewBox="0 0 12 12" fill="none" xmlns="http://www.w3.org/2000/svg">
<path d="M1.00188 1.8937C1.01645 1.66193 1.11509 1.44344 1.2793 1.27922C1.45814 1.10044 1.70066 1 1.95355 1C2.20643 1 2.44895 1.10044 2.6278 1.27922L6 4.65143L9.3722 1.27922C9.55105 1.10044 9.79357 1 10.0465 1C10.2993 1 10.5419 1.10044 10.7207 1.27922L10.7999 1.36887C10.9422 1.55236 11.0127 1.78148 10.9981 2.01325C10.9835 2.24502 10.8849 2.46351 10.7207 2.62772L7.3485 5.99993L10.7207 9.37213L10.7999 9.46178C10.9481 9.65346 11.0178 9.89437 10.9948 10.1356C10.9718 10.3768 10.8579 10.6002 10.6761 10.7605C10.4944 10.9207 10.2585 11.0058 10.0163 10.9984C9.77412 10.991 9.54383 10.8917 9.3722 10.7206L6 7.34843L2.6278 10.7206C2.44895 10.8994 2.20643 10.9999 1.95355 10.9999C1.70066 10.9999 1.45814 10.8994 1.2793 10.7206L1.20014 10.631C1.0578 10.4475 0.987308 10.2184 1.00188 9.98661C1.01645 9.75484 1.11509 9.53635 1.2793 9.37213L4.6515 5.99993L1.2793 2.62772L1.20014 2.53808C1.0578 2.35459 0.987308 2.12546 1.00188 1.8937Z" fill="#515151"/>
</svg>
